<?xml version="1.0" standalone="no"?>
<!DOCTYPE svg PUBLIC "-//W3C//DTD SVG 20010904//EN"
 "http://www.w3.org/TR/2001/REC-SVG-20010904/DTD/svg10.dtd">
<svg version="1.0" xmlns="http://www.w3.org/2000/svg"
 width="512.000000pt" height="512.000000pt" viewBox="0 0 512.000000 512.000000"
 preserveAspectRatio="xMidYMid meet">

<g transform="translate(0.000000,512.000000) scale(0.100000,-0.100000)"
fill="#000000" stroke="none">
<path d="M1070 4315 c-520 -300 -953 -555 -962 -566 -17 -20 -18 -88 -18
-1124 0 -1036 1 -1104 18 -1122 9 -11 273 -168 587 -348 314 -181 737 -425
940 -542 204 -118 381 -216 395 -219 19 -3 142 63 525 285 l500 289 5 -242 c5
-218 7 -245 26 -287 31 -66 78 -114 142 -146 l57 -28 760 0 760 0 57 28 c64
32 111 80 142 146 21 46 21 49 21 1131 l0 1085 -24 47 c-30 61 -89 120 -149
149 -42 20 -65 23 -209 27 l-162 4 -21 44 c-50 103 -128 134 -337 134 l-143 0
0 334 c0 333 0 335 -22 359 -13 14 -243 152 -513 307 -269 156 -691 399 -937
542 -246 142 -458 258 -470 258 -13 0 -448 -245 -968 -545z m37 -1232 l863
-498 0 -997 c0 -549 -3 -998 -6 -998 -3 0 -394 224 -869 498 l-865 497 0 998
c0 548 3 997 7 997 4 0 395 -224 870 -497z m3209 -197 c37 -37 44 -74 22 -121
-23 -50 -47 -55 -292 -55 -153 0 -233 4 -251 12 -49 22 -69 96 -41 147 26 47
45 50 295 51 l233 0 34 -34z m-690 -178 c23 -46 62 -86 109 -111 38 -21 52
-22 310 -22 260 0 272 1 312 22 45 25 100 85 110 121 l6 23 158 -3 c172 -3
185 -7 233 -72 21 -27 21 -32 21 -1096 0 -1069 0 -1069 -21 -1097 -11 -15 -36
-38 -54 -50 l-33 -23 -732 0 -732 0 -34 23 c-18 12 -44 38 -56 56 l-23 34 0
1048 c0 718 3 1057 11 1076 6 15 20 39 32 52 40 43 73 50 224 51 l142 0 17
-32z"/>
<path d="M3395 2315 c-25 -24 -25 -26 -25 -210 0 -184 0 -186 25 -210 33 -34
119 -36 159 -4 38 30 33 76 -11 104 l-32 20 -1 93 0 92 96 0 c86 0 98 -2 113
-22 25 -30 78 -29 103 1 28 35 24 105 -7 136 -24 25 -26 25 -210 25 -184 0
-186 0 -210 -25z"/>
<path d="M3836 2161 l-111 -110 -42 40 c-23 21 -52 39 -63 39 -52 0 -85 -44
-68 -91 5 -15 40 -57 78 -93 98 -95 93 -97 272 82 118 118 148 153 148 175 0
36 -33 67 -72 67 -26 0 -48 -17 -142 -109z"/>
<path d="M4166 2149 c-35 -28 -35 -70 0 -98 25 -20 39 -21 266 -21 l239 0 24
25 c14 13 25 34 25 45 0 12 -11 32 -25 45 l-24 25 -239 0 c-227 0 -241 -1
-266 -21z"/>
<path d="M3395 1675 c-25 -24 -25 -26 -25 -210 0 -251 -16 -235 235 -235 251
0 235 -16 235 235 0 251 16 235 -235 235 -184 0 -186 0 -210 -25z m305 -210
l0 -95 -95 0 -95 0 0 95 0 95 95 0 95 0 0 -95z"/>
<path d="M4166 1509 c-35 -28 -35 -70 0 -98 25 -20 39 -21 266 -21 l239 0 24
25 c14 13 25 34 25 45 0 11 -11 32 -25 45 l-24 25 -239 0 c-227 0 -241 -1
-266 -21z"/>
<path d="M3395 1035 c-25 -24 -25 -26 -25 -210 0 -184 0 -186 25 -210 33 -34
119 -36 159 -4 38 30 33 76 -11 104 l-32 20 -1 93 0 92 95 0 c59 0 95 -4 95
-10 0 -19 48 -60 70 -60 12 0 32 11 45 25 21 20 25 34 25 80 0 46 -4 60 -25
80 -24 25 -26 25 -210 25 -184 0 -186 0 -210 -25z"/>
<path d="M3843 868 l-112 -112 -40 37 c-50 45 -83 55 -116 33 -19 -13 -25 -25
-25 -55 0 -34 8 -45 74 -109 56 -55 81 -72 102 -72 23 0 56 27 176 148 96 95
148 155 148 169 0 32 -38 73 -68 73 -21 0 -52 -25 -139 -112z"/>
<path d="M4166 869 c-35 -28 -35 -70 0 -98 25 -20 39 -21 266 -21 l239 0 24
25 c14 13 25 34 25 45 0 11 -11 32 -25 45 l-24 25 -239 0 c-227 0 -241 -1
-266 -21z"/>
</g>
</svg>
